<svg width="24" height="25" viewBox="0 0 24 25" fill="none" xmlns="http://www.w3.org/2000/svg">
<path fill-rule="evenodd" clip-rule="evenodd" d="M20.75 20.5C20.75 21.229 20.46 21.929 19.945 22.445C19.429 22.96 18.729 23.25 18 23.25H6C5.271 23.25 4.571 22.96 4.055 22.445C3.54 21.929 3.25 21.229 3.25 20.5V4.5C3.25 3.771 3.54 3.071 4.055 2.555C4.571 2.04 5.271 1.75 6 1.75H14.586C15.05 1.75 15.495 1.934 15.823 2.263L20.237 6.677C20.566 7.005 20.75 7.45 20.75 7.914V20.5ZM19.25 20.5V7.914C19.25 7.848 19.224 7.784 19.177 7.737L14.763 3.323C14.716 3.276 14.652 3.25 14.586 3.25H6C5.668 3.25 5.351 3.382 5.116 3.616C4.882 3.851 4.75 4.168 4.75 4.5V20.5C4.75 20.832 4.882 21.149 5.116 21.384C5.351 21.618 5.668 21.75 6 21.75H18C18.332 21.75 18.649 21.618 18.884 21.384C19.118 21.149 19.25 20.832 19.25 20.5Z" fill="#374151"/>
<path fill-rule="evenodd" clip-rule="evenodd" d="M14.25 3C14.25 2.586 14.586 2.25 15 2.25C15.414 2.25 15.75 2.586 15.75 3V6.5C15.75 6.638 15.862 6.75 16 6.75H19.5C19.914 6.75 20.25 7.086 20.25 7.5C20.25 7.914 19.914 8.25 19.5 8.25H16C15.033 8.25 14.25 7.467 14.25 6.5V3Z" fill="#374151"/>
<path fill-rule="evenodd" clip-rule="evenodd" d="M8 11.75C7.586 11.75 7.25 11.414 7.25 11C7.25 10.586 7.586 10.25 8 10.25H16C16.414 10.25 16.75 10.586 16.75 11C16.75 11.414 16.414 11.75 16 11.75H8Z" fill="#374151"/>
<path fill-rule="evenodd" clip-rule="evenodd" d="M8 15.25C7.586 15.25 7.25 14.914 7.25 14.5C7.25 14.086 7.586 13.75 8 13.75H16C16.414 13.75 16.75 14.086 16.75 14.5C16.75 14.914 16.414 15.25 16 15.25H8Z" fill="#374151"/>
<path fill-rule="evenodd" clip-rule="evenodd" d="M8 18.75C7.586 18.75 7.25 18.414 7.25 18C7.25 17.586 7.586 17.25 8 17.25H12.5C12.914 17.25 13.25 17.586 13.25 18C13.25 18.414 12.914 18.75 12.5 18.75H8Z" fill="#374151"/>
</svg>
